<?xml version="1.0" encoding="UTF-8"?>
<svg xmlns="http://www.w3.org/2000/svg" xmlns:xlink="http://www.w3.org/1999/xlink" width="3873" height="3873" viewBox="0 0 3873 3873">
<defs>
<clipPath id="clip-0">
<path clip-rule="evenodd" d="M 1936.5 0 C 3006 0 3873 867 3873 1936.5 C 3873 3006 3006 3873 1936.5 3873 C 867 3873 0 3006 0 1936.5 C 0 867 867 0 1936.5 0 "/>
</clipPath>
<linearGradient id="linear-pattern-0" gradientUnits="userSpaceOnUse" x1="-0.500003" y1="0" x2="1.500004" y2="0" gradientTransform="matrix(2072.1, -1778.5, 1778.5, 2072.1, 900.448, 2825.75)">
<stop offset="0" stop-color="rgb(0%, 100%, 100%)" stop-opacity="1"/>
<stop offset="0.25" stop-color="rgb(0%, 100%, 100%)" stop-opacity="1"/>
<stop offset="0.253906" stop-color="rgb(0.907898%, 98.976135%, 99.487305%)" stop-opacity="1"/>
<stop offset="0.257812" stop-color="rgb(1.817322%, 97.953796%, 98.976135%)" stop-opacity="1"/>
<stop offset="0.261719" stop-color="rgb(2.72522%, 96.931458%, 98.464966%)" stop-opacity="1"/>
<stop offset="0.265625" stop-color="rgb(3.634644%, 95.909119%, 97.953796%)" stop-opacity="1"/>
<stop offset="0.269531" stop-color="rgb(4.544067%, 94.885254%, 97.442627%)" stop-opacity="1"/>
<stop offset="0.273438" stop-color="rgb(5.453491%, 93.862915%, 96.931458%)" stop-opacity="1"/>
<stop offset="0.277344" stop-color="rgb(6.361389%, 92.840576%, 96.420288%)" stop-opacity="1"/>
<stop offset="0.28125" stop-color="rgb(7.270813%, 91.818237%, 95.909119%)" stop-opacity="1"/>
<stop offset="0.285156" stop-color="rgb(8.180237%, 90.794373%, 95.396423%)" stop-opacity="1"/>
<stop offset="0.289062" stop-color="rgb(9.089661%, 89.772034%, 94.885254%)" stop-opacity="1"/>
<stop offset="0.292969" stop-color="rgb(9.997559%, 88.749695%, 94.374084%)" stop-opacity="1"/>
<stop offset="0.296875" stop-color="rgb(10.906982%, 87.727356%, 93.862915%)" stop-opacity="1"/>
<stop offset="0.300781" stop-color="rgb(11.816406%, 86.705017%, 93.351746%)" stop-opacity="1"/>
<stop offset="0.304688" stop-color="rgb(12.72583%, 85.682678%, 92.840576%)" stop-opacity="1"/>
<stop offset="0.308594" stop-color="rgb(13.633728%, 84.658813%, 92.329407%)" stop-opacity="1"/>
<stop offset="0.3125" stop-color="rgb(14.543152%, 83.636475%, 91.818237%)" stop-opacity="1"/>
<stop offset="0.316406" stop-color="rgb(15.452576%, 82.614136%, 91.307068%)" stop-opacity="1"/>
<stop offset="0.320312" stop-color="rgb(16.362%, 81.591797%, 90.795898%)" stop-opacity="1"/>
<stop offset="0.324219" stop-color="rgb(17.269897%, 80.567932%, 90.283203%)" stop-opacity="1"/>
<stop offset="0.328125" stop-color="rgb(18.179321%, 79.545593%, 89.772034%)" stop-opacity="1"/>
<stop offset="0.332031" stop-color="rgb(19.088745%, 78.523254%, 89.260864%)" stop-opacity="1"/>
<stop offset="0.335938" stop-color="rgb(19.998169%, 77.500916%, 88.749695%)" stop-opacity="1"/>
<stop offset="0.339844" stop-color="rgb(20.906067%, 76.477051%, 88.238525%)" stop-opacity="1"/>
<stop offset="0.34375" stop-color="rgb(21.815491%, 75.454712%, 87.727356%)" stop-opacity="1"/>
<stop offset="0.347656" stop-color="rgb(22.724915%, 74.432373%, 87.216187%)" stop-opacity="1"/>
<stop offset="0.351562" stop-color="rgb(23.634338%, 73.410034%, 86.705017%)" stop-opacity="1"/>
<stop offset="0.355469" stop-color="rgb(24.542236%, 72.387695%, 86.193848%)" stop-opacity="1"/>
<stop offset="0.359375" stop-color="rgb(25.45166%, 71.365356%, 85.682678%)" stop-opacity="1"/>
<stop offset="0.363281" stop-color="rgb(26.361084%, 70.341492%, 85.169983%)" stop-opacity="1"/>
<stop offset="0.367188" stop-color="rgb(27.270508%, 69.319153%, 84.658813%)" stop-opacity="1"/>
<stop offset="0.371094" stop-color="rgb(28.178406%, 68.296814%, 84.147644%)" stop-opacity="1"/>
<stop offset="0.375" stop-color="rgb(29.08783%, 67.274475%, 83.636475%)" stop-opacity="1"/>
<stop offset="0.378906" stop-color="rgb(29.997253%, 66.25061%, 83.125305%)" stop-opacity="1"/>
<stop offset="0.382812" stop-color="rgb(30.906677%, 65.228271%, 82.614136%)" stop-opacity="1"/>
<stop offset="0.386719" stop-color="rgb(31.814575%, 64.205933%, 82.102966%)" stop-opacity="1"/>
<stop offset="0.390625" stop-color="rgb(32.723999%, 63.183594%, 81.591797%)" stop-opacity="1"/>
<stop offset="0.394531" stop-color="rgb(33.633423%, 62.159729%, 81.079102%)" stop-opacity="1"/>
<stop offset="0.398438" stop-color="rgb(34.542847%, 61.13739%, 80.567932%)" stop-opacity="1"/>
<stop offset="0.402344" stop-color="rgb(35.450745%, 60.115051%, 80.056763%)" stop-opacity="1"/>
<stop offset="0.40625" stop-color="rgb(36.360168%, 59.092712%, 79.545593%)" stop-opacity="1"/>
<stop offset="0.410156" stop-color="rgb(37.269592%, 58.070374%, 79.034424%)" stop-opacity="1"/>
<stop offset="0.414062" stop-color="rgb(38.179016%, 57.048035%, 78.523254%)" stop-opacity="1"/>
<stop offset="0.417969" stop-color="rgb(39.086914%, 56.02417%, 78.012085%)" stop-opacity="1"/>
<stop offset="0.421875" stop-color="rgb(39.996338%, 55.001831%, 77.500916%)" stop-opacity="1"/>
<stop offset="0.425781" stop-color="rgb(40.905762%, 53.979492%, 76.989746%)" stop-opacity="1"/>
<stop offset="0.429688" stop-color="rgb(41.815186%, 52.957153%, 76.478577%)" stop-opacity="1"/>
<stop offset="0.433594" stop-color="rgb(42.723083%, 51.933289%, 75.965881%)" stop-opacity="1"/>
<stop offset="0.4375" stop-color="rgb(43.632507%, 50.91095%, 75.454712%)" stop-opacity="1"/>
<stop offset="0.441406" stop-color="rgb(44.541931%, 49.888611%, 74.943542%)" stop-opacity="1"/>
<stop offset="0.445312" stop-color="rgb(45.451355%, 48.866272%, 74.432373%)" stop-opacity="1"/>
<stop offset="0.449219" stop-color="rgb(46.359253%, 47.842407%, 73.921204%)" stop-opacity="1"/>
<stop offset="0.453125" stop-color="rgb(47.268677%, 46.820068%, 73.410034%)" stop-opacity="1"/>
<stop offset="0.457031" stop-color="rgb(48.178101%, 45.797729%, 72.898865%)" stop-opacity="1"/>
<stop offset="0.460938" stop-color="rgb(49.087524%, 44.775391%, 72.387695%)" stop-opacity="1"/>
<stop offset="0.464844" stop-color="rgb(49.479675%, 44.346619%, 71.905518%)" stop-opacity="1"/>
<stop offset="0.46875" stop-color="rgb(49.871826%, 43.919373%, 71.42334%)" stop-opacity="1"/>
<stop offset="0.472656" stop-color="rgb(49.456787%, 44.419861%, 70.986938%)" stop-opacity="1"/>
<stop offset="0.476562" stop-color="rgb(49.041748%, 44.921875%, 70.550537%)" stop-opacity="1"/>
<stop offset="0.480469" stop-color="rgb(48.626709%, 45.422363%, 70.114136%)" stop-opacity="1"/>
<stop offset="0.484375" stop-color="rgb(48.21167%, 45.924377%, 69.677734%)" stop-opacity="1"/>
<stop offset="0.488281" stop-color="rgb(47.796631%, 46.424866%, 69.241333%)" stop-opacity="1"/>
<stop offset="0.492188" stop-color="rgb(47.381592%, 46.92688%, 68.804932%)" stop-opacity="1"/>
<stop offset="0.496094" stop-color="rgb(46.966553%, 47.427368%, 68.36853%)" stop-opacity="1"/>
<stop offset="0.5" stop-color="rgb(46.551514%, 47.929382%, 67.932129%)" stop-opacity="1"/>
<stop offset="0.503906" stop-color="rgb(46.136475%, 48.429871%, 67.495728%)" stop-opacity="1"/>
<stop offset="0.507812" stop-color="rgb(45.722961%, 48.930359%, 67.059326%)" stop-opacity="1"/>
<stop offset="0.511719" stop-color="rgb(45.307922%, 49.430847%, 66.622925%)" stop-opacity="1"/>
<stop offset="0.515625" stop-color="rgb(44.892883%, 49.932861%, 66.186523%)" stop-opacity="1"/>
<stop offset="0.519531" stop-color="rgb(44.477844%, 50.43335%, 65.748596%)" stop-opacity="1"/>
<stop offset="0.523438" stop-color="rgb(44.062805%, 50.935364%, 65.312195%)" stop-opacity="1"/>
<stop offset="0.527344" stop-color="rgb(43.647766%, 51.435852%, 64.875793%)" stop-opacity="1"/>
<stop offset="0.53125" stop-color="rgb(43.232727%, 51.937866%, 64.439392%)" stop-opacity="1"/>
<stop offset="0.535156" stop-color="rgb(42.817688%, 52.438354%, 64.002991%)" stop-opacity="1"/>
<stop offset="0.539062" stop-color="rgb(42.402649%, 52.940369%, 63.566589%)" stop-opacity="1"/>
<stop offset="0.542969" stop-color="rgb(41.98761%, 53.440857%, 63.130188%)" stop-opacity="1"/>
<stop offset="0.546875" stop-color="rgb(41.574097%, 53.941345%, 62.693787%)" stop-opacity="1"/>
<stop offset="0.550781" stop-color="rgb(41.159058%, 54.441833%, 62.257385%)" stop-opacity="1"/>
<stop offset="0.554688" stop-color="rgb(40.744019%, 54.943848%, 61.820984%)" stop-opacity="1"/>
<stop offset="0.558594" stop-color="rgb(40.328979%, 55.444336%, 61.384583%)" stop-opacity="1"/>
<stop offset="0.5625" stop-color="rgb(39.91394%, 55.94635%, 60.948181%)" stop-opacity="1"/>
<stop offset="0.566406" stop-color="rgb(39.498901%, 56.446838%, 60.51178%)" stop-opacity="1"/>
<stop offset="0.570312" stop-color="rgb(39.083862%, 56.948853%, 60.075378%)" stop-opacity="1"/>
<stop offset="0.574219" stop-color="rgb(38.668823%, 57.449341%, 59.638977%)" stop-opacity="1"/>
<stop offset="0.578125" stop-color="rgb(38.253784%, 57.951355%, 59.202576%)" stop-opacity="1"/>
<stop offset="0.582031" stop-color="rgb(37.838745%, 58.451843%, 58.766174%)" stop-opacity="1"/>
<stop offset="0.585938" stop-color="rgb(37.425232%, 58.952332%, 58.329773%)" stop-opacity="1"/>
<stop offset="0.589844" stop-color="rgb(37.010193%, 59.45282%, 57.893372%)" stop-opacity="1"/>
<stop offset="0.59375" stop-color="rgb(36.595154%, 59.954834%, 57.45697%)" stop-opacity="1"/>
<stop offset="0.597656" stop-color="rgb(36.180115%, 60.455322%, 57.020569%)" stop-opacity="1"/>
<stop offset="0.601562" stop-color="rgb(35.765076%, 60.957336%, 56.584167%)" stop-opacity="1"/>
<stop offset="0.605469" stop-color="rgb(35.350037%, 61.457825%, 56.147766%)" stop-opacity="1"/>
<stop offset="0.609375" stop-color="rgb(34.934998%, 61.959839%, 55.711365%)" stop-opacity="1"/>
<stop offset="0.613281" stop-color="rgb(34.519958%, 62.460327%, 55.274963%)" stop-opacity="1"/>
<stop offset="0.617188" stop-color="rgb(34.104919%, 62.962341%, 54.838562%)" stop-opacity="1"/>
<stop offset="0.621094" stop-color="rgb(33.68988%, 63.46283%, 54.402161%)" stop-opacity="1"/>
<stop offset="0.625" stop-color="rgb(33.276367%, 63.963318%, 53.965759%)" stop-opacity="1"/>
<stop offset="0.628906" stop-color="rgb(32.861328%, 64.463806%, 53.529358%)" stop-opacity="1"/>
<stop offset="0.632812" stop-color="rgb(32.446289%, 64.96582%, 53.092957%)" stop-opacity="1"/>
<stop offset="0.636719" stop-color="rgb(32.03125%, 65.466309%, 52.656555%)" stop-opacity="1"/>
<stop offset="0.640625" stop-color="rgb(31.616211%, 65.968323%, 52.220154%)" stop-opacity="1"/>
<stop offset="0.644531" stop-color="rgb(31.201172%, 66.468811%, 51.783752%)" stop-opacity="1"/>
<stop offset="0.648438" stop-color="rgb(30.786133%, 66.970825%, 51.347351%)" stop-opacity="1"/>
<stop offset="0.652344" stop-color="rgb(30.371094%, 67.471313%, 50.91095%)" stop-opacity="1"/>
<stop offset="0.65625" stop-color="rgb(29.956055%, 67.973328%, 50.474548%)" stop-opacity="1"/>
<stop offset="0.660156" stop-color="rgb(29.541016%, 68.473816%, 50.036621%)" stop-opacity="1"/>
<stop offset="0.664062" stop-color="rgb(29.127502%, 68.97583%, 49.60022%)" stop-opacity="1"/>
<stop offset="0.667969" stop-color="rgb(28.712463%, 69.476318%, 49.163818%)" stop-opacity="1"/>
<stop offset="0.671875" stop-color="rgb(28.297424%, 69.976807%, 48.727417%)" stop-opacity="1"/>
<stop offset="0.675781" stop-color="rgb(27.882385%, 70.477295%, 48.291016%)" stop-opacity="1"/>
<stop offset="0.679688" stop-color="rgb(27.467346%, 70.979309%, 47.854614%)" stop-opacity="1"/>
<stop offset="0.683594" stop-color="rgb(27.052307%, 71.479797%, 47.418213%)" stop-opacity="1"/>
<stop offset="0.6875" stop-color="rgb(26.637268%, 71.981812%, 46.981812%)" stop-opacity="1"/>
<stop offset="0.691406" stop-color="rgb(26.222229%, 72.4823%, 46.54541%)" stop-opacity="1"/>
<stop offset="0.695312" stop-color="rgb(25.80719%, 72.984314%, 46.109009%)" stop-opacity="1"/>
<stop offset="0.699219" stop-color="rgb(25.392151%, 73.484802%, 45.672607%)" stop-opacity="1"/>
<stop offset="0.703125" stop-color="rgb(24.977112%, 73.986816%, 45.236206%)" stop-opacity="1"/>
<stop offset="0.707031" stop-color="rgb(24.562073%, 74.487305%, 44.799805%)" stop-opacity="1"/>
<stop offset="0.710938" stop-color="rgb(24.14856%, 74.987793%, 44.363403%)" stop-opacity="1"/>
<stop offset="0.714844" stop-color="rgb(23.733521%, 75.488281%, 43.927002%)" stop-opacity="1"/>
<stop offset="0.71875" stop-color="rgb(23.318481%, 75.990295%, 43.490601%)" stop-opacity="1"/>
<stop offset="0.722656" stop-color="rgb(22.903442%, 76.490784%, 43.054199%)" stop-opacity="1"/>
<stop offset="0.726562" stop-color="rgb(22.488403%, 76.992798%, 42.617798%)" stop-opacity="1"/>
<stop offset="0.730469" stop-color="rgb(22.073364%, 77.493286%, 42.181396%)" stop-opacity="1"/>
<stop offset="0.734375" stop-color="rgb(21.658325%, 77.9953%, 41.744995%)" stop-opacity="1"/>
<stop offset="0.738281" stop-color="rgb(21.243286%, 78.495789%, 41.308594%)" stop-opacity="1"/>
<stop offset="0.742188" stop-color="rgb(20.828247%, 78.997803%, 40.872192%)" stop-opacity="1"/>
<stop offset="0.746094" stop-color="rgb(20.413208%, 79.498291%, 40.435791%)" stop-opacity="1"/>
<stop offset="0.75" stop-color="rgb(19.999695%, 79.998779%, 39.99939%)" stop-opacity="1"/>
<stop offset="1" stop-color="rgb(19.999695%, 79.998779%, 39.99939%)" stop-opacity="1"/>
</linearGradient>
</defs>
<g clip-path="url(#clip-0)">
<path fill-rule="nonzero" fill="url(#linear-pattern-0)" d="M -1914.113281 1642.898438 L 1642.898438 5787.113281 L 5787.113281 2230.101562 L 2230.101562 -1914.113281 Z M -1914.113281 1642.898438 "/>
</g>
<path fill-rule="evenodd" fill="rgb(100%, 100%, 99.609375%)" fill-opacity="1" d="M 2190.601562 2070.898438 C 2181.5 2070.898438 2172.699219 2068 2165.398438 2062.601562 C 2146.601562 2048.699219 2142.601562 2022.101562 2156.5 2003.199219 L 2554.699219 1464.398438 C 2568.601562 1445.601562 2595.199219 1441.601562 2614.101562 1455.5 C 2632.898438 1469.398438 2636.898438 1496 2623 1514.898438 L 2224.800781 2053.699219 C 2216.699219 2064.5 2204.101562 2070.898438 2190.601562 2070.898438 Z M 2074.898438 2079.5 C 2063.601562 2079.5 2052.898438 2075 2044.898438 2067.101562 L 1849.5 1871.699219 C 1832.898438 1855.101562 1832.898438 1828.199219 1849.5 1811.699219 C 1866.101562 1795.101562 1893 1795.101562 1909.5 1811.699219 L 2104.898438 2007.101562 C 2121.5 2023.699219 2121.5 2050.601562 2104.898438 2067.101562 C 2096.898438 2075 2086.199219 2079.5 2074.898438 2079.5 Z M 1350.800781 2287 C 1339.5 2287 1328.800781 2282.5 1320.800781 2274.601562 C 1304.199219 2258 1304.199219 2231.101562 1320.800781 2214.601562 L 1725.199219 1810.199219 C 1741.800781 1793.601562 1768.699219 1793.601562 1785.199219 1810.199219 C 1801.800781 1826.800781 1801.800781 1853.699219 1785.199219 1870.199219 L 1380.800781 2274.601562 C 1372.898438 2282.601562 1362.101562 2287 1350.800781 2287 "/>
<path fill-rule="evenodd" fill="rgb(100%, 100%, 99.609375%)" fill-opacity="1" d="M 1287.898438 2417.601562 C 1227.199219 2417.601562 1177.699219 2368.199219 1177.699219 2307.398438 C 1177.699219 2246.601562 1227.101562 2197.199219 1287.898438 2197.199219 C 1348.601562 2197.199219 1398.101562 2246.601562 1398.101562 2307.398438 C 1398.101562 2368.199219 1348.699219 2417.601562 1287.898438 2417.601562 "/>
<path fill-rule="evenodd" fill="rgb(100%, 100%, 99.609375%)" fill-opacity="1" d="M 1816.601562 1888.898438 C 1755.898438 1888.898438 1706.398438 1839.5 1706.398438 1778.699219 C 1706.398438 1718 1755.800781 1668.5 1816.601562 1668.5 C 1877.300781 1668.5 1926.800781 1717.898438 1926.800781 1778.699219 C 1926.800781 1839.5 1877.398438 1888.898438 1816.601562 1888.898438 "/>
<path fill-rule="evenodd" fill="rgb(100%, 100%, 99.609375%)" fill-opacity="1" d="M 2137.800781 2210.101562 C 2077.101562 2210.101562 2027.601562 2160.699219 2027.601562 2099.898438 C 2027.601562 2039.101562 2077 1989.699219 2137.800781 1989.699219 C 2198.601562 1989.699219 2248 2039.101562 2248 2099.898438 C 2247.898438 2160.699219 2198.5 2210.101562 2137.800781 2210.101562 "/>
<path fill-rule="evenodd" fill="rgb(100%, 100%, 99.609375%)" fill-opacity="1" d="M 2641.699219 1528.300781 C 2581 1528.300781 2531.5 1478.898438 2531.5 1418.101562 C 2531.5 1357.398438 2580.898438 1307.898438 2641.699219 1307.898438 C 2702.398438 1307.898438 2751.898438 1357.300781 2751.898438 1418.101562 C 2751.898438 1478.800781 2702.5 1528.300781 2641.699219 1528.300781 "/>
<path fill-rule="evenodd" fill="rgb(100%, 100%, 99.609375%)" fill-opacity="1" d="M 2107.101562 1368.800781 L 2197.398438 1368.800781 C 2207.898438 1368.800781 2216.5 1360.199219 2216.5 1349.699219 L 2216.5 1312.199219 C 2216.5 1301.699219 2207.898438 1293.101562 2197.398438 1293.101562 L 2107.101562 1293.101562 Z M 2064.699219 1390.101562 L 2064.699219 1293.300781 L 2043.800781 1293.300781 C 2032.101562 1293.300781 2022.601562 1283.800781 2022.601562 1272.101562 C 2022.601562 1260.398438 2032.101562 1250.898438 2043.800781 1250.898438 L 2080 1250.898438 L 2080 1209.300781 C 2080 1197.601562 2089.5 1188.101562 2101.199219 1188.101562 C 2112.898438 1188.101562 2122.398438 1197.601562 2122.398438 1209.300781 L 2122.398438 1250.898438 L 2156.398438 1250.898438 L 2156.398438 1209.300781 C 2156.398438 1197.601562 2165.898438 1188.101562 2177.601562 1188.101562 C 2189.300781 1188.101562 2198.800781 1197.601562 2198.800781 1209.300781 L 2198.800781 1250.898438 C 2232 1251.699219 2258.800781 1279 2258.800781 1312.398438 L 2258.800781 1349.898438 C 2258.800781 1365.300781 2253.101562 1379.398438 2243.699219 1390.199219 C 2253.101562 1401 2258.800781 1415.101562 2258.800781 1430.5 L 2258.800781 1468 C 2258.800781 1501.398438 2232 1528.699219 2198.800781 1529.5 L 2198.800781 1571.101562 C 2198.800781 1582.800781 2189.300781 1592.300781 2177.601562 1592.300781 C 2165.898438 1592.300781 2156.398438 1582.800781 2156.398438 1571.101562 L 2156.398438 1529.5 L 2122.398438 1529.5 L 2122.398438 1571.101562 C 2122.398438 1582.800781 2112.898438 1592.300781 2101.199219 1592.300781 C 2089.5 1592.300781 2080 1582.800781 2080 1571.101562 L 2080 1529.5 L 2043.800781 1529.5 C 2032.101562 1529.5 2022.601562 1520 2022.601562 1508.300781 C 2022.601562 1496.601562 2032.101562 1487.101562 2043.800781 1487.101562 L 2064.699219 1487.101562 Z M 2197.398438 1411.300781 L 2107.101562 1411.300781 L 2107.101562 1486.898438 L 2197.300781 1486.898438 C 2207.800781 1486.898438 2216.398438 1478.300781 2216.398438 1467.800781 L 2216.398438 1430.300781 C 2216.5 1419.898438 2208 1411.300781 2197.398438 1411.300781 Z M 2140.800781 1692.898438 C 1973.800781 1692.898438 1838 1557.101562 1838 1390.101562 C 1838 1223.101562 1973.800781 1087.300781 2140.800781 1087.300781 C 2307.800781 1087.300781 2443.601562 1223.101562 2443.601562 1390.101562 C 2443.601562 1557.101562 2307.699219 1692.898438 2140.800781 1692.898438 "/>
<path fill-rule="evenodd" fill="rgb(100%, 100%, 99.609375%)" fill-opacity="1" d="M 1067.601562 2700.699219 L 2934.101562 2695.898438 C 2957.5 2695.898438 2976.5 2714.800781 2976.5 2738.199219 C 2976.601562 2761.601562 2957.601562 2780.699219 2934.199219 2780.800781 L 1025.101562 2785.699219 C 1013.898438 2785.699219 1003.101562 2781.199219 995.101562 2773.300781 C 987.101562 2765.300781 982.601562 2754.5 982.601562 2743.199219 L 982.601562 1169.5 C 982.601562 1146.101562 1001.601562 1127 1025.101562 1127 C 1048.601562 1127 1067.601562 1146 1067.601562 1169.5 L 1067.601562 2700.699219 "/>
<path fill-rule="evenodd" fill="rgb(100%, 100%, 99.609375%)" fill-opacity="1" d="M 1287.898438 2784.898438 C 1264.5 2784.898438 1245.398438 2765.898438 1245.398438 2742.398438 L 1245.398438 2534.898438 C 1245.398438 2511.5 1264.398438 2492.398438 1287.898438 2492.398438 C 1311.398438 2492.398438 1330.398438 2511.398438 1330.398438 2534.898438 L 1330.398438 2742.398438 C 1330.398438 2765.800781 1311.398438 2784.898438 1287.898438 2784.898438 "/>
<path fill-rule="evenodd" fill="rgb(100%, 100%, 99.609375%)" fill-opacity="1" d="M 1816.601562 2783.699219 C 1793.199219 2783.699219 1774.101562 2764.699219 1774.101562 2741.199219 L 1774.101562 2006.5 C 1774.101562 1983.101562 1793.101562 1964 1816.601562 1964 C 1840 1964 1859.101562 1983 1859.101562 2006.5 L 1859.101562 2741.199219 C 1859.101562 2764.601562 1840.101562 2783.699219 1816.601562 2783.699219 "/>
<path fill-rule="evenodd" fill="rgb(100%, 100%, 99.609375%)" fill-opacity="1" d="M 2137.800781 2782.898438 C 2114.398438 2782.898438 2095.300781 2763.898438 2095.300781 2740.398438 L 2095.300781 2327.601562 C 2095.300781 2304.199219 2114.300781 2285.101562 2137.800781 2285.101562 C 2161.199219 2285.101562 2180.300781 2304.101562 2180.300781 2327.601562 L 2180.300781 2740.398438 C 2180.199219 2763.898438 2161.199219 2782.898438 2137.800781 2782.898438 "/>
<path fill-rule="evenodd" fill="rgb(100%, 100%, 99.609375%)" fill-opacity="1" d="M 2641.699219 2781.800781 C 2618.300781 2781.800781 2599.199219 2762.800781 2599.199219 2739.300781 L 2599.199219 1644.300781 C 2599.199219 1620.898438 2618.199219 1601.800781 2641.699219 1601.800781 C 2665.101562 1601.800781 2684.199219 1620.800781 2684.199219 1644.300781 L 2684.199219 2739.300781 C 2684.199219 2762.699219 2665.199219 2781.800781 2641.699219 2781.800781 "/>
<path fill-rule="evenodd" fill="rgb(100%, 100%, 99.609375%)" fill-opacity="1" d="M 1025.199219 2565.5 L 938.898438 2565.5 C 915.5 2565.5 896.398438 2546.5 896.398438 2523 C 896.398438 2499.601562 915.398438 2480.5 938.898438 2480.5 L 1025.199219 2480.5 C 1048.601562 2480.5 1067.699219 2499.5 1067.699219 2523 C 1067.601562 2546.5 1048.601562 2565.5 1025.199219 2565.5 Z M 1025.199219 2338.800781 L 938.898438 2338.800781 C 915.5 2338.800781 896.398438 2319.800781 896.398438 2296.300781 C 896.398438 2272.898438 915.398438 2253.800781 938.898438 2253.800781 L 1025.199219 2253.800781 C 1048.601562 2253.800781 1067.699219 2272.800781 1067.699219 2296.300781 C 1067.601562 2319.800781 1048.601562 2338.800781 1025.199219 2338.800781 Z M 1025.199219 2112.199219 L 938.898438 2112.199219 C 915.5 2112.199219 896.398438 2093.199219 896.398438 2069.699219 C 896.398438 2046.300781 915.398438 2027.199219 938.898438 2027.199219 L 1025.199219 2027.199219 C 1048.601562 2027.199219 1067.699219 2046.199219 1067.699219 2069.699219 C 1067.601562 2093.199219 1048.601562 2112.199219 1025.199219 2112.199219 Z M 1025.199219 1885.601562 L 938.898438 1885.601562 C 915.5 1885.601562 896.398438 1866.601562 896.398438 1843.101562 C 896.398438 1819.601562 915.398438 1800.601562 938.898438 1800.601562 L 1025.199219 1800.601562 C 1048.601562 1800.601562 1067.699219 1819.601562 1067.699219 1843.101562 C 1067.601562 1866.601562 1048.601562 1885.601562 1025.199219 1885.601562 Z M 1025.199219 1659 L 938.898438 1659 C 915.5 1659 896.398438 1640 896.398438 1616.5 C 896.398438 1593 915.398438 1574 938.898438 1574 L 1025.199219 1574 C 1048.601562 1574 1067.699219 1593 1067.699219 1616.5 C 1067.601562 1640 1048.601562 1659 1025.199219 1659 Z M 1025.199219 1432.300781 L 938.898438 1432.300781 C 915.5 1432.300781 896.398438 1413.300781 896.398438 1389.800781 C 896.398438 1366.300781 915.398438 1347.300781 938.898438 1347.300781 L 1025.199219 1347.300781 C 1048.601562 1347.300781 1067.699219 1366.300781 1067.699219 1389.800781 C 1067.601562 1413.300781 1048.601562 1432.300781 1025.199219 1432.300781 "/>
</svg>
