<svg width="21" height="21" viewBox="0 0 21 21" fill="none" xmlns="http://www.w3.org/2000/svg">
<path d="M16.8452 9.37421C16.8335 10.547 16.5279 11.6982 15.9564 12.7224C15.3062 13.9102 14.3294 14.887 13.1415 15.5372C11.7853 16.2655 10.2274 16.5285 8.70712 16.2858C7.18689 16.043 5.78839 15.3079 4.72641 14.1933C3.66442 13.0788 2.99768 11.6464 2.82858 10.1162C2.65949 8.58604 2.99738 7.04266 3.79038 5.72311C4.58338 4.40356 5.78762 3.38082 7.21816 2.81197C8.6487 2.24311 10.2264 2.15959 11.709 2.57423C13.1916 2.98887 14.4971 3.87876 15.425 5.1072C16.3529 6.33565 16.8518 7.83473 16.8452 9.37421Z" stroke="#808080" stroke-miterlimit="10" stroke-linecap="square"/>
<path d="M18.4897 18.0703C18.3079 18.2537 18.0915 18.3993 17.8532 18.4987C17.6148 18.5981 17.3591 18.6492 17.1008 18.6492C16.8425 18.6492 16.5868 18.5981 16.3484 18.4987C16.1101 18.3993 15.8937 18.2537 15.7119 18.0703L13.1415 15.537C14.3294 14.8868 15.3062 13.91 15.9564 12.7222L18.4897 15.2629C18.6776 15.4452 18.827 15.6634 18.9291 15.9045C19.0311 16.1456 19.0837 16.4048 19.0837 16.6666C19.0837 16.9284 19.0311 17.1876 18.9291 17.4287C18.827 17.6698 18.6776 17.888 18.4897 18.0703V18.0703Z" stroke="#808080" stroke-linecap="round" stroke-linejoin="round"/>
<path d="M6.38599 9.06309C6.38599 8.2419 6.7122 7.45435 7.29287 6.87368C7.87354 6.29301 8.66109 5.9668 9.48228 5.9668" stroke="#808080" stroke-linecap="round" stroke-linejoin="round"/>
</svg>
